<svg xmlns="http://www.w3.org/2000/svg" xmlns:xlink="http://www.w3.org/1999/xlink" width="1280" zoomAndPan="magnify" viewBox="0 0 960 540.000001" height="720" preserveAspectRatio="xMidYMid meet" version="1.0"><defs><g/><clipPath id="4df6a7c384"><path d="M 251.4375 172 L 319 172 L 319 241 L 251.4375 241 Z M 251.4375 172 " clip-rule="nonzero"/></clipPath><clipPath id="a0e84ee6c1"><path d="M 313.835938 206.558594 C 313.835938 222.445312 300.957031 235.320312 285.074219 235.320312 C 269.1875 235.320312 256.308594 222.445312 256.308594 206.558594 C 256.308594 190.671875 269.1875 177.796875 285.074219 177.796875 C 300.957031 177.796875 313.835938 190.671875 313.835938 206.558594 Z M 318.691406 206.558594 C 318.691406 225.125 303.640625 240.179688 285.074219 240.179688 C 266.503906 240.179688 251.453125 225.125 251.453125 206.558594 C 251.453125 187.992188 266.503906 172.9375 285.074219 172.9375 C 303.640625 172.9375 318.691406 187.992188 318.691406 206.558594 Z M 303.621094 191.488281 C 303.621094 193.410156 302.0625 194.964844 300.144531 194.964844 C 298.222656 194.964844 296.664062 193.410156 296.664062 191.488281 C 296.664062 189.566406 298.222656 188.011719 300.144531 188.011719 C 302.0625 188.011719 303.621094 189.566406 303.621094 191.488281 Z M 274.960938 209.269531 C 276.457031 214.851562 282.195312 218.167969 287.78125 216.671875 C 293.367188 215.175781 296.679688 209.433594 295.183594 203.847656 C 293.6875 198.261719 287.949219 194.949219 282.363281 196.445312 C 276.777344 197.941406 273.464844 203.683594 274.960938 209.269531 Z M 270.269531 210.523438 C 272.460938 218.699219 280.863281 223.550781 289.039062 221.363281 C 297.214844 219.171875 302.066406 210.765625 299.875 202.589844 C 297.683594 194.417969 289.28125 189.5625 281.105469 191.753906 C 272.929688 193.945312 268.078125 202.347656 270.269531 210.523438 Z M 270.269531 210.523438 " clip-rule="evenodd"/></clipPath><linearGradient x1="15" gradientTransform="matrix(2.241292, 0, 0, 2.241292, 251.453184, 166.215164)" y1="2.999992" x2="15" gradientUnits="userSpaceOnUse" y2="32.999993" id="6793ba6fd1"><stop stop-opacity="1" stop-color="rgb(100%, 19.198608%, 19.198608%)" offset="0"/><stop stop-opacity="1" stop-color="rgb(100%, 19.198608%, 19.198608%)" offset="0.25"/><stop stop-opacity="1" stop-color="rgb(100%, 19.198608%, 19.198608%)" offset="0.375"/><stop stop-opacity="1" stop-color="rgb(100%, 19.198608%, 19.198608%)" offset="0.4375"/><stop stop-opacity="1" stop-color="rgb(100%, 19.198608%, 19.198608%)" offset="0.453125"/><stop stop-opacity="1" stop-color="rgb(100%, 19.198608%, 19.198608%)" offset="0.460938"/><stop stop-opacity="1" stop-color="rgb(100%, 19.779968%, 19.779968%)" offset="0.464844"/><stop stop-opacity="1" stop-color="rgb(100%, 20.361328%, 20.361328%)" offset="0.46875"/><stop stop-opacity="1" stop-color="rgb(100%, 20.94574%, 20.94574%)" offset="0.472656"/><stop stop-opacity="1" stop-color="rgb(100%, 21.531677%, 21.531677%)" offset="0.476562"/><stop stop-opacity="1" stop-color="rgb(100%, 22.117615%, 22.117615%)" offset="0.480469"/><stop stop-opacity="1" stop-color="rgb(100%, 22.703552%, 22.703552%)" offset="0.484375"/><stop stop-opacity="1" stop-color="rgb(100%, 23.287964%, 23.287964%)" offset="0.488281"/><stop stop-opacity="1" stop-color="rgb(100%, 23.873901%, 23.873901%)" offset="0.492188"/><stop stop-opacity="1" stop-color="rgb(100%, 24.459839%, 24.459839%)" offset="0.496094"/><stop stop-opacity="1" stop-color="rgb(100%, 25.045776%, 25.045776%)" offset="0.5"/><stop stop-opacity="1" stop-color="rgb(100%, 25.630188%, 25.630188%)" offset="0.503906"/><stop stop-opacity="1" stop-color="rgb(100%, 26.216125%, 26.216125%)" offset="0.507812"/><stop stop-opacity="1" stop-color="rgb(100%, 26.802063%, 26.802063%)" offset="0.511719"/><stop stop-opacity="1" stop-color="rgb(100%, 27.388%, 27.388%)" offset="0.515625"/><stop stop-opacity="1" stop-color="rgb(100%, 27.972412%, 27.972412%)" offset="0.519531"/><stop stop-opacity="1" stop-color="rgb(100%, 28.55835%, 28.55835%)" offset="0.523438"/><stop stop-opacity="1" stop-color="rgb(100%, 29.144287%, 29.144287%)" offset="0.527344"/><stop stop-opacity="1" stop-color="rgb(100%, 29.730225%, 29.730225%)" offset="0.53125"/><stop stop-opacity="1" stop-color="rgb(100%, 30.314636%, 30.314636%)" offset="0.535156"/><stop stop-opacity="1" stop-color="rgb(100%, 30.900574%, 30.900574%)" offset="0.539063"/><stop stop-opacity="1" stop-color="rgb(100%, 31.486511%, 31.486511%)" offset="0.542969"/><stop stop-opacity="1" stop-color="rgb(100%, 32.072449%, 32.072449%)" offset="0.546875"/><stop stop-opacity="1" stop-color="rgb(100%, 32.658386%, 32.658386%)" offset="0.550781"/><stop stop-opacity="1" stop-color="rgb(100%, 33.244324%, 33.244324%)" offset="0.554688"/><stop stop-opacity="1" stop-color="rgb(100%, 33.828735%, 33.828735%)" offset="0.558594"/><stop stop-opacity="1" stop-color="rgb(100%, 34.414673%, 34.414673%)" offset="0.5625"/><stop stop-opacity="1" stop-color="rgb(100%, 35.00061%, 35.00061%)" offset="0.566406"/><stop stop-opacity="1" stop-color="rgb(100%, 35.586548%, 35.586548%)" offset="0.570313"/><stop stop-opacity="1" stop-color="rgb(100%, 36.170959%, 36.170959%)" offset="0.574219"/><stop stop-opacity="1" stop-color="rgb(100%, 36.756897%, 36.756897%)" offset="0.578125"/><stop stop-opacity="1" stop-color="rgb(100%, 37.342834%, 37.342834%)" offset="0.582031"/><stop stop-opacity="1" stop-color="rgb(100%, 37.928772%, 37.928772%)" offset="0.585938"/><stop stop-opacity="1" stop-color="rgb(100%, 38.513184%, 38.513184%)" offset="0.589844"/><stop stop-opacity="1" stop-color="rgb(100%, 39.099121%, 39.099121%)" offset="0.59375"/><stop stop-opacity="1" stop-color="rgb(100%, 39.685059%, 39.685059%)" offset="0.597656"/><stop stop-opacity="1" stop-color="rgb(100%, 40.270996%, 40.270996%)" offset="0.601563"/><stop stop-opacity="1" stop-color="rgb(100%, 40.855408%, 40.855408%)" offset="0.605469"/><stop stop-opacity="1" stop-color="rgb(100%, 41.441345%, 41.441345%)" offset="0.609375"/><stop stop-opacity="1" stop-color="rgb(100%, 42.027283%, 42.027283%)" offset="0.613281"/><stop stop-opacity="1" stop-color="rgb(100%, 42.61322%, 42.61322%)" offset="0.617188"/><stop stop-opacity="1" stop-color="rgb(100%, 43.197632%, 43.197632%)" offset="0.621094"/><stop stop-opacity="1" stop-color="rgb(100%, 43.783569%, 43.783569%)" offset="0.625"/><stop stop-opacity="1" stop-color="rgb(100%, 44.369507%, 44.369507%)" offset="0.628906"/><stop stop-opacity="1" stop-color="rgb(100%, 44.955444%, 44.955444%)" offset="0.632812"/><stop stop-opacity="1" stop-color="rgb(100%, 45.539856%, 45.539856%)" offset="0.636719"/><stop stop-opacity="1" stop-color="rgb(100%, 46.125793%, 46.125793%)" offset="0.640625"/><stop stop-opacity="1" stop-color="rgb(100%, 46.711731%, 46.711731%)" offset="0.644531"/><stop stop-opacity="1" stop-color="rgb(100%, 47.297668%, 47.297668%)" offset="0.648438"/><stop stop-opacity="1" stop-color="rgb(100%, 47.88208%, 47.88208%)" offset="0.652344"/><stop stop-opacity="1" stop-color="rgb(100%, 48.468018%, 48.468018%)" offset="0.65625"/><stop stop-opacity="1" stop-color="rgb(100%, 49.053955%, 49.053955%)" offset="0.660156"/><stop stop-opacity="1" stop-color="rgb(100%, 49.639893%, 49.639893%)" offset="0.664062"/><stop stop-opacity="1" stop-color="rgb(100%, 50.224304%, 50.224304%)" offset="0.667969"/><stop stop-opacity="1" stop-color="rgb(100%, 50.810242%, 50.810242%)" offset="0.671875"/><stop stop-opacity="1" stop-color="rgb(100%, 51.396179%, 51.396179%)" offset="0.675781"/><stop stop-opacity="1" stop-color="rgb(100%, 51.982117%, 51.982117%)" offset="0.679688"/><stop stop-opacity="1" stop-color="rgb(100%, 52.566528%, 52.566528%)" offset="0.683594"/><stop stop-opacity="1" stop-color="rgb(100%, 53.152466%, 53.152466%)" offset="0.6875"/><stop stop-opacity="1" stop-color="rgb(100%, 53.738403%, 53.738403%)" offset="0.691406"/><stop stop-opacity="1" stop-color="rgb(100%, 54.324341%, 54.324341%)" offset="0.695312"/><stop stop-opacity="1" stop-color="rgb(100%, 54.910278%, 54.910278%)" offset="0.699219"/><stop stop-opacity="1" stop-color="rgb(100%, 55.496216%, 55.496216%)" offset="0.703125"/><stop stop-opacity="1" stop-color="rgb(100%, 56.080627%, 56.080627%)" offset="0.707031"/><stop stop-opacity="1" stop-color="rgb(100%, 56.666565%, 56.666565%)" offset="0.710938"/><stop stop-opacity="1" stop-color="rgb(100%, 57.252502%, 57.252502%)" offset="0.714844"/><stop stop-opacity="1" stop-color="rgb(100%, 57.83844%, 57.83844%)" offset="0.71875"/><stop stop-opacity="1" stop-color="rgb(100%, 58.422852%, 58.422852%)" offset="0.722656"/><stop stop-opacity="1" stop-color="rgb(100%, 59.008789%, 59.008789%)" offset="0.726562"/><stop stop-opacity="1" stop-color="rgb(100%, 59.594727%, 59.594727%)" offset="0.730469"/><stop stop-opacity="1" stop-color="rgb(100%, 60.180664%, 60.180664%)" offset="0.734375"/><stop stop-opacity="1" stop-color="rgb(100%, 60.765076%, 60.765076%)" offset="0.738281"/><stop stop-opacity="1" stop-color="rgb(100%, 61.351013%, 61.351013%)" offset="0.742188"/><stop stop-opacity="1" stop-color="rgb(100%, 61.936951%, 61.936951%)" offset="0.746094"/><stop stop-opacity="1" stop-color="rgb(100%, 62.522888%, 62.522888%)" offset="0.75"/><stop stop-opacity="1" stop-color="rgb(100%, 63.1073%, 63.1073%)" offset="0.753906"/><stop stop-opacity="1" stop-color="rgb(100%, 63.693237%, 63.693237%)" offset="0.757812"/><stop stop-opacity="1" stop-color="rgb(100%, 64.279175%, 64.279175%)" offset="0.761719"/><stop stop-opacity="1" stop-color="rgb(100%, 64.865112%, 64.865112%)" offset="0.765625"/><stop stop-opacity="1" stop-color="rgb(100%, 65.449524%, 65.449524%)" offset="0.769531"/><stop stop-opacity="1" stop-color="rgb(100%, 66.035461%, 66.035461%)" offset="0.773438"/><stop stop-opacity="1" stop-color="rgb(100%, 66.621399%, 66.621399%)" offset="0.777344"/><stop stop-opacity="1" stop-color="rgb(100%, 67.207336%, 67.207336%)" offset="0.78125"/><stop stop-opacity="1" stop-color="rgb(100%, 67.791748%, 67.791748%)" offset="0.785156"/><stop stop-opacity="1" stop-color="rgb(100%, 68.377686%, 68.377686%)" offset="0.789062"/><stop stop-opacity="1" stop-color="rgb(100%, 68.963623%, 68.963623%)" offset="0.792969"/><stop stop-opacity="1" stop-color="rgb(100%, 69.549561%, 69.549561%)" offset="0.796875"/><stop stop-opacity="1" stop-color="rgb(100%, 70.133972%, 70.133972%)" offset="0.800781"/><stop stop-opacity="1" stop-color="rgb(100%, 70.71991%, 70.71991%)" offset="0.804688"/><stop stop-opacity="1" stop-color="rgb(100%, 71.305847%, 71.305847%)" offset="0.808594"/><stop stop-opacity="1" stop-color="rgb(100%, 71.891785%, 71.891785%)" offset="0.8125"/><stop stop-opacity="1" stop-color="rgb(100%, 72.476196%, 72.476196%)" offset="0.816406"/><stop stop-opacity="1" stop-color="rgb(100%, 73.062134%, 73.062134%)" offset="0.820312"/><stop stop-opacity="1" stop-color="rgb(100%, 73.648071%, 73.648071%)" offset="0.824219"/><stop stop-opacity="1" stop-color="rgb(100%, 74.234009%, 74.234009%)" offset="0.828125"/><stop stop-opacity="1" stop-color="rgb(100%, 74.81842%, 74.81842%)" offset="0.832031"/><stop stop-opacity="1" stop-color="rgb(100%, 75.404358%, 75.404358%)" offset="0.835938"/><stop stop-opacity="1" stop-color="rgb(100%, 75.990295%, 75.990295%)" offset="0.839844"/><stop stop-opacity="1" stop-color="rgb(100%, 76.576233%, 76.576233%)" offset="0.84375"/><stop stop-opacity="1" stop-color="rgb(100%, 77.16217%, 77.16217%)" offset="0.847656"/><stop stop-opacity="1" stop-color="rgb(100%, 77.748108%, 77.748108%)" offset="0.851562"/><stop stop-opacity="1" stop-color="rgb(100%, 78.33252%, 78.33252%)" offset="0.855469"/><stop stop-opacity="1" stop-color="rgb(100%, 78.918457%, 78.918457%)" offset="0.859375"/><stop stop-opacity="1" stop-color="rgb(100%, 79.504395%, 79.504395%)" offset="0.863281"/><stop stop-opacity="1" stop-color="rgb(100%, 80.090332%, 80.090332%)" offset="0.867188"/><stop stop-opacity="1" stop-color="rgb(100%, 80.674744%, 80.674744%)" offset="0.871094"/><stop stop-opacity="1" stop-color="rgb(100%, 81.260681%, 81.260681%)" offset="0.875"/><stop stop-opacity="1" stop-color="rgb(100%, 81.846619%, 81.846619%)" offset="0.878906"/><stop stop-opacity="1" stop-color="rgb(100%, 82.432556%, 82.432556%)" offset="0.882812"/><stop stop-opacity="1" stop-color="rgb(100%, 83.016968%, 83.016968%)" offset="0.886719"/><stop stop-opacity="1" stop-color="rgb(100%, 83.602905%, 83.602905%)" offset="0.890625"/><stop stop-opacity="1" stop-color="rgb(100%, 84.188843%, 84.188843%)" offset="0.894531"/><stop stop-opacity="1" stop-color="rgb(100%, 84.77478%, 84.77478%)" offset="0.898438"/><stop stop-opacity="1" stop-color="rgb(100%, 85.359192%, 85.359192%)" offset="0.902344"/><stop stop-opacity="1" stop-color="rgb(100%, 85.945129%, 85.945129%)" offset="0.90625"/><stop stop-opacity="1" stop-color="rgb(100%, 86.531067%, 86.531067%)" offset="0.910156"/><stop stop-opacity="1" stop-color="rgb(100%, 87.117004%, 87.117004%)" offset="0.914062"/><stop stop-opacity="1" stop-color="rgb(100%, 87.701416%, 87.701416%)" offset="0.917969"/><stop stop-opacity="1" stop-color="rgb(100%, 88.287354%, 88.287354%)" offset="0.921875"/><stop stop-opacity="1" stop-color="rgb(100%, 88.873291%, 88.873291%)" offset="0.925781"/><stop stop-opacity="1" stop-color="rgb(100%, 89.459229%, 89.459229%)" offset="0.929688"/><stop stop-opacity="1" stop-color="rgb(100%, 90.04364%, 90.04364%)" offset="0.933594"/><stop stop-opacity="1" stop-color="rgb(100%, 90.629578%, 90.629578%)" offset="0.9375"/><stop stop-opacity="1" stop-color="rgb(100%, 91.215515%, 91.215515%)" offset="0.941406"/><stop stop-opacity="1" stop-color="rgb(100%, 91.801453%, 91.801453%)" offset="0.945312"/><stop stop-opacity="1" stop-color="rgb(100%, 92.385864%, 92.385864%)" offset="0.949219"/><stop stop-opacity="1" stop-color="rgb(100%, 92.971802%, 92.971802%)" offset="0.953125"/><stop stop-opacity="1" stop-color="rgb(100%, 93.557739%, 93.557739%)" offset="0.957031"/><stop stop-opacity="1" stop-color="rgb(100%, 94.143677%, 94.143677%)" offset="0.960938"/><stop stop-opacity="1" stop-color="rgb(100%, 94.728088%, 94.728088%)" offset="0.964844"/><stop stop-opacity="1" stop-color="rgb(100%, 95.314026%, 95.314026%)" offset="0.96875"/><stop stop-opacity="1" stop-color="rgb(100%, 95.899963%, 95.899963%)" offset="0.972656"/><stop stop-opacity="1" stop-color="rgb(100%, 96.485901%, 96.485901%)" offset="0.976562"/><stop stop-opacity="1" stop-color="rgb(100%, 97.070312%, 97.070312%)" offset="0.980469"/><stop stop-opacity="1" stop-color="rgb(100%, 97.65625%, 97.65625%)" offset="0.984375"/><stop stop-opacity="1" stop-color="rgb(100%, 98.242188%, 98.242188%)" offset="0.988281"/><stop stop-opacity="1" stop-color="rgb(100%, 98.828125%, 98.828125%)" offset="0.992188"/><stop stop-opacity="1" stop-color="rgb(100%, 99.412537%, 99.412537%)" offset="0.996094"/><stop stop-opacity="1" stop-color="rgb(100%, 99.998474%, 99.998474%)" offset="1"/></linearGradient></defs><g clip-path="url(#4df6a7c384)"><g clip-path="url(#a0e84ee6c1)"><path fill="url(#6793ba6fd1)" d="M 251.453125 172.9375 L 251.453125 240.179688 L 318.691406 240.179688 L 318.691406 172.9375 Z M 251.453125 172.9375 " fill-rule="nonzero"/></g></g><g fill="#ffffff" fill-opacity="1"><g transform="translate(330.619535, 225.651137)"><g><path d="M 19.46875 0.515625 C 16.1875 0.515625 13.296875 -0.164062 10.796875 -1.53125 C 8.296875 -2.894531 6.335938 -4.945312 4.921875 -7.6875 C 3.503906 -10.425781 2.796875 -13.800781 2.796875 -17.8125 C 2.796875 -21.820312 3.503906 -25.195312 4.921875 -27.9375 C 6.335938 -30.675781 8.296875 -32.726562 10.796875 -34.09375 C 13.296875 -35.457031 16.1875 -36.140625 19.46875 -36.140625 C 22.894531 -36.140625 25.804688 -35.46875 28.203125 -34.125 C 30.597656 -32.789062 32.304688 -30.75 33.328125 -28 L 28.1875 -24.859375 L 27.578125 -24.875 C 26.816406 -26.726562 25.78125 -28.054688 24.46875 -28.859375 C 23.164062 -29.671875 21.5 -30.078125 19.46875 -30.078125 C 16.507812 -30.078125 14.203125 -29.097656 12.546875 -27.140625 C 10.890625 -25.179688 10.0625 -22.070312 10.0625 -17.8125 C 10.0625 -13.570312 10.890625 -10.472656 12.546875 -8.515625 C 14.203125 -6.554688 16.507812 -5.578125 19.46875 -5.578125 C 24.101562 -5.578125 26.9375 -7.828125 27.96875 -12.328125 L 28.578125 -12.328125 L 33.78125 -9.625 C 32.800781 -6.25 31.132812 -3.710938 28.78125 -2.015625 C 26.425781 -0.328125 23.320312 0.515625 19.46875 0.515625 Z M 19.46875 0.515625 "/></g></g></g><g fill="#ffffff" fill-opacity="1"><g transform="translate(365.559126, 225.651137)"><g><path d="M 19.421875 0.515625 C 16.160156 0.515625 13.28125 -0.148438 10.78125 -1.484375 C 8.289062 -2.816406 6.335938 -4.851562 4.921875 -7.59375 C 3.503906 -10.332031 2.796875 -13.738281 2.796875 -17.8125 C 2.796875 -21.882812 3.503906 -25.289062 4.921875 -28.03125 C 6.335938 -30.769531 8.289062 -32.804688 10.78125 -34.140625 C 13.28125 -35.472656 16.160156 -36.140625 19.421875 -36.140625 C 22.679688 -36.140625 25.554688 -35.476562 28.046875 -34.15625 C 30.535156 -32.832031 32.476562 -30.796875 33.875 -28.046875 C 35.28125 -25.296875 35.984375 -21.882812 35.984375 -17.8125 C 35.984375 -13.738281 35.28125 -10.328125 33.875 -7.578125 C 32.476562 -4.828125 30.535156 -2.789062 28.046875 -1.46875 C 25.554688 -0.144531 22.679688 0.515625 19.421875 0.515625 Z M 19.421875 -5.609375 C 22.441406 -5.609375 24.75 -6.578125 26.34375 -8.515625 C 27.9375 -10.453125 28.734375 -13.550781 28.734375 -17.8125 C 28.734375 -22.070312 27.9375 -25.175781 26.34375 -27.125 C 24.75 -29.070312 22.441406 -30.046875 19.421875 -30.046875 C 16.378906 -30.046875 14.054688 -29.070312 12.453125 -27.125 C 10.859375 -25.175781 10.0625 -22.070312 10.0625 -17.8125 C 10.0625 -13.550781 10.859375 -10.453125 12.453125 -8.515625 C 14.054688 -6.578125 16.378906 -5.609375 19.421875 -5.609375 Z M 19.421875 -5.609375 "/></g></g></g><g fill="#ffffff" fill-opacity="1"><g transform="translate(404.372772, 225.651137)"><g><path d="M 4.625 0 L 4.625 -35.625 L 18.9375 -35.625 C 22.625 -35.625 25.40625 -34.773438 27.28125 -33.078125 C 29.15625 -31.378906 30.09375 -29.035156 30.09375 -26.046875 C 30.09375 -23.890625 29.546875 -22.117188 28.453125 -20.734375 C 27.359375 -19.359375 25.722656 -18.300781 23.546875 -17.5625 L 23.546875 -17.0625 C 24.660156 -16.570312 25.5625 -15.847656 26.25 -14.890625 C 26.945312 -13.929688 27.601562 -12.507812 28.21875 -10.625 L 31.78125 0 L 24.53125 0 L 21.046875 -10.65625 C 20.691406 -11.71875 20.289062 -12.546875 19.84375 -13.140625 C 19.394531 -13.734375 18.828125 -14.164062 18.140625 -14.4375 C 17.453125 -14.707031 16.554688 -14.84375 15.453125 -14.84375 L 11.671875 -14.84375 L 11.671875 0 Z M 18.078125 -20.421875 C 21.492188 -20.421875 23.203125 -22.015625 23.203125 -25.203125 C 23.203125 -28.429688 21.492188 -30.046875 18.078125 -30.046875 L 11.671875 -30.046875 L 11.671875 -20.421875 Z M 18.078125 -20.421875 "/></g></g></g><g fill="#ffffff" fill-opacity="1"><g transform="translate(437.6799, 225.651137)"><g><path d="M 4.625 0 L 4.625 -35.625 L 18.9375 -35.625 C 22.625 -35.625 25.40625 -34.773438 27.28125 -33.078125 C 29.15625 -31.378906 30.09375 -29.035156 30.09375 -26.046875 C 30.09375 -23.890625 29.546875 -22.117188 28.453125 -20.734375 C 27.359375 -19.359375 25.722656 -18.300781 23.546875 -17.5625 L 23.546875 -17.0625 C 24.660156 -16.570312 25.5625 -15.847656 26.25 -14.890625 C 26.945312 -13.929688 27.601562 -12.507812 28.21875 -10.625 L 31.78125 0 L 24.53125 0 L 21.046875 -10.65625 C 20.691406 -11.71875 20.289062 -12.546875 19.84375 -13.140625 C 19.394531 -13.734375 18.828125 -14.164062 18.140625 -14.4375 C 17.453125 -14.707031 16.554688 -14.84375 15.453125 -14.84375 L 11.671875 -14.84375 L 11.671875 0 Z M 18.078125 -20.421875 C 21.492188 -20.421875 23.203125 -22.015625 23.203125 -25.203125 C 23.203125 -28.429688 21.492188 -30.046875 18.078125 -30.046875 L 11.671875 -30.046875 L 11.671875 -20.421875 Z M 18.078125 -20.421875 "/></g></g></g><g fill="#ffffff" fill-opacity="1"><g transform="translate(470.987027, 225.651137)"><g><path d="M 18.890625 0.515625 C 13.984375 0.515625 10.34375 -0.648438 7.96875 -2.984375 C 5.59375 -5.316406 4.40625 -8.773438 4.40625 -13.359375 L 4.40625 -35.625 L 11.3125 -35.625 L 11.3125 -13.40625 C 11.3125 -10.800781 11.9375 -8.847656 13.1875 -7.546875 C 14.4375 -6.253906 16.335938 -5.609375 18.890625 -5.609375 C 23.941406 -5.609375 26.46875 -8.207031 26.46875 -13.40625 L 26.46875 -35.625 L 33.359375 -35.625 L 33.359375 -13.359375 C 33.359375 -8.773438 32.171875 -5.316406 29.796875 -2.984375 C 27.429688 -0.648438 23.796875 0.515625 18.890625 0.515625 Z M 18.890625 0.515625 "/></g></g></g><g fill="#ffffff" fill-opacity="1"><g transform="translate(508.752973, 225.651137)"><g><path d="M 11.09375 0 L 4.625 0 L 4.625 -35.625 L 13.84375 -35.625 L 22.859375 -9.4375 L 23.375 -9.4375 L 32.34375 -35.625 L 41.328125 -35.625 L 41.328125 0 L 34.65625 0 L 34.65625 -23.546875 L 34.046875 -23.640625 L 25.8125 0 L 19.9375 0 L 11.703125 -23.640625 L 11.09375 -23.546875 Z M 11.09375 0 "/></g></g></g></svg>