<svg xmlns="http://www.w3.org/2000/svg" xmlns:xlink="http://www.w3.org/1999/xlink" width="1000" zoomAndPan="magnify" viewBox="0 0 750 225" height="300" preserveAspectRatio="xMidYMid meet" version="1.0"><defs><g/><clipPath id="c76cd03221"><path d="M 22.5 19 L 210 19 L 210 207 L 22.5 207 Z M 22.5 19 " clip-rule="nonzero"/></clipPath><clipPath id="b879be879d"><path d="M 195.640625 113.027344 C 195.640625 157.117188 159.898438 192.859375 115.808594 192.859375 C 71.71875 192.859375 35.976562 157.117188 35.976562 113.027344 C 35.976562 68.9375 71.71875 33.195312 115.808594 33.195312 C 159.898438 33.195312 195.640625 68.9375 195.640625 113.027344 Z M 209.121094 113.027344 C 209.121094 164.5625 167.34375 206.335938 115.808594 206.335938 C 64.277344 206.335938 22.5 164.5625 22.5 113.027344 C 22.5 61.492188 64.277344 19.714844 115.808594 19.714844 C 167.34375 19.714844 209.121094 61.492188 209.121094 113.027344 Z M 167.292969 71.199219 C 167.292969 76.53125 162.96875 80.851562 157.640625 80.851562 C 152.308594 80.851562 147.988281 76.53125 147.988281 71.199219 C 147.988281 65.867188 152.308594 61.546875 157.640625 61.546875 C 162.96875 61.546875 167.292969 65.867188 167.292969 71.199219 Z M 87.742188 120.546875 C 91.894531 136.046875 107.828125 145.246094 123.332031 141.09375 C 138.832031 136.941406 148.03125 121.007812 143.878906 105.507812 C 139.722656 90.003906 123.789062 80.804688 108.289062 84.960938 C 92.789062 89.113281 83.589844 105.046875 87.742188 120.546875 Z M 74.722656 124.035156 C 80.804688 146.726562 104.128906 160.195312 126.816406 154.113281 C 149.511719 148.03125 162.976562 124.710938 156.894531 102.015625 C 150.816406 79.328125 127.492188 65.859375 104.800781 71.941406 C 82.109375 78.019531 68.640625 101.34375 74.722656 124.035156 Z M 74.722656 124.035156 " clip-rule="evenodd"/></clipPath><linearGradient x1="15" gradientTransform="matrix(6.220668, 0, 0, 6.220668, 22.5, 1.05472)" y1="3.000001" x2="15" gradientUnits="userSpaceOnUse" y2="33.000002" id="0553863991"><stop stop-opacity="1" stop-color="rgb(100%, 19.198608%, 19.198608%)" offset="0"/><stop stop-opacity="1" stop-color="rgb(100%, 19.198608%, 19.198608%)" offset="0.25"/><stop stop-opacity="1" stop-color="rgb(100%, 19.198608%, 19.198608%)" offset="0.375"/><stop stop-opacity="1" stop-color="rgb(100%, 19.198608%, 19.198608%)" offset="0.4375"/><stop stop-opacity="1" stop-color="rgb(100%, 19.198608%, 19.198608%)" offset="0.453125"/><stop stop-opacity="1" stop-color="rgb(100%, 19.198608%, 19.198608%)" offset="0.460938"/><stop stop-opacity="1" stop-color="rgb(100%, 19.779968%, 19.779968%)" offset="0.464844"/><stop stop-opacity="1" stop-color="rgb(100%, 20.361328%, 20.361328%)" offset="0.46875"/><stop stop-opacity="1" stop-color="rgb(100%, 20.94574%, 20.94574%)" offset="0.472656"/><stop stop-opacity="1" stop-color="rgb(100%, 21.531677%, 21.531677%)" offset="0.476562"/><stop stop-opacity="1" stop-color="rgb(100%, 22.117615%, 22.117615%)" offset="0.480469"/><stop stop-opacity="1" stop-color="rgb(100%, 22.703552%, 22.703552%)" offset="0.484375"/><stop stop-opacity="1" stop-color="rgb(100%, 23.287964%, 23.287964%)" offset="0.488281"/><stop stop-opacity="1" stop-color="rgb(100%, 23.873901%, 23.873901%)" offset="0.492188"/><stop stop-opacity="1" stop-color="rgb(100%, 24.459839%, 24.459839%)" offset="0.496094"/><stop stop-opacity="1" stop-color="rgb(100%, 25.045776%, 25.045776%)" offset="0.5"/><stop stop-opacity="1" stop-color="rgb(100%, 25.630188%, 25.630188%)" offset="0.503906"/><stop stop-opacity="1" stop-color="rgb(100%, 26.216125%, 26.216125%)" offset="0.507812"/><stop stop-opacity="1" stop-color="rgb(100%, 26.802063%, 26.802063%)" offset="0.511719"/><stop stop-opacity="1" stop-color="rgb(100%, 27.388%, 27.388%)" offset="0.515625"/><stop stop-opacity="1" stop-color="rgb(100%, 27.972412%, 27.972412%)" offset="0.519531"/><stop stop-opacity="1" stop-color="rgb(100%, 28.55835%, 28.55835%)" offset="0.523437"/><stop stop-opacity="1" stop-color="rgb(100%, 29.144287%, 29.144287%)" offset="0.527344"/><stop stop-opacity="1" stop-color="rgb(100%, 29.730225%, 29.730225%)" offset="0.53125"/><stop stop-opacity="1" stop-color="rgb(100%, 30.316162%, 30.316162%)" offset="0.535156"/><stop stop-opacity="1" stop-color="rgb(100%, 30.9021%, 30.9021%)" offset="0.539062"/><stop stop-opacity="1" stop-color="rgb(100%, 31.486511%, 31.486511%)" offset="0.542969"/><stop stop-opacity="1" stop-color="rgb(100%, 32.072449%, 32.072449%)" offset="0.546875"/><stop stop-opacity="1" stop-color="rgb(100%, 32.658386%, 32.658386%)" offset="0.550781"/><stop stop-opacity="1" stop-color="rgb(100%, 33.244324%, 33.244324%)" offset="0.554687"/><stop stop-opacity="1" stop-color="rgb(100%, 33.828735%, 33.828735%)" offset="0.558594"/><stop stop-opacity="1" stop-color="rgb(100%, 34.414673%, 34.414673%)" offset="0.5625"/><stop stop-opacity="1" stop-color="rgb(100%, 35.00061%, 35.00061%)" offset="0.566406"/><stop stop-opacity="1" stop-color="rgb(100%, 35.586548%, 35.586548%)" offset="0.570312"/><stop stop-opacity="1" stop-color="rgb(100%, 36.170959%, 36.170959%)" offset="0.574219"/><stop stop-opacity="1" stop-color="rgb(100%, 36.756897%, 36.756897%)" offset="0.578125"/><stop stop-opacity="1" stop-color="rgb(100%, 37.342834%, 37.342834%)" offset="0.582031"/><stop stop-opacity="1" stop-color="rgb(100%, 37.928772%, 37.928772%)" offset="0.585937"/><stop stop-opacity="1" stop-color="rgb(100%, 38.513184%, 38.513184%)" offset="0.589844"/><stop stop-opacity="1" stop-color="rgb(100%, 39.099121%, 39.099121%)" offset="0.59375"/><stop stop-opacity="1" stop-color="rgb(100%, 39.685059%, 39.685059%)" offset="0.597656"/><stop stop-opacity="1" stop-color="rgb(100%, 40.270996%, 40.270996%)" offset="0.601562"/><stop stop-opacity="1" stop-color="rgb(100%, 40.855408%, 40.855408%)" offset="0.605469"/><stop stop-opacity="1" stop-color="rgb(100%, 41.441345%, 41.441345%)" offset="0.609375"/><stop stop-opacity="1" stop-color="rgb(100%, 42.027283%, 42.027283%)" offset="0.613281"/><stop stop-opacity="1" stop-color="rgb(100%, 42.61322%, 42.61322%)" offset="0.617188"/><stop stop-opacity="1" stop-color="rgb(100%, 43.197632%, 43.197632%)" offset="0.621094"/><stop stop-opacity="1" stop-color="rgb(100%, 43.783569%, 43.783569%)" offset="0.625"/><stop stop-opacity="1" stop-color="rgb(100%, 44.369507%, 44.369507%)" offset="0.628906"/><stop stop-opacity="1" stop-color="rgb(100%, 44.955444%, 44.955444%)" offset="0.632812"/><stop stop-opacity="1" stop-color="rgb(100%, 45.539856%, 45.539856%)" offset="0.636719"/><stop stop-opacity="1" stop-color="rgb(100%, 46.125793%, 46.125793%)" offset="0.640625"/><stop stop-opacity="1" stop-color="rgb(100%, 46.711731%, 46.711731%)" offset="0.644531"/><stop stop-opacity="1" stop-color="rgb(100%, 47.297668%, 47.297668%)" offset="0.648438"/><stop stop-opacity="1" stop-color="rgb(100%, 47.88208%, 47.88208%)" offset="0.652344"/><stop stop-opacity="1" stop-color="rgb(100%, 48.468018%, 48.468018%)" offset="0.65625"/><stop stop-opacity="1" stop-color="rgb(100%, 49.053955%, 49.053955%)" offset="0.660156"/><stop stop-opacity="1" stop-color="rgb(100%, 49.639893%, 49.639893%)" offset="0.664063"/><stop stop-opacity="1" stop-color="rgb(100%, 50.224304%, 50.224304%)" offset="0.667969"/><stop stop-opacity="1" stop-color="rgb(100%, 50.810242%, 50.810242%)" offset="0.671875"/><stop stop-opacity="1" stop-color="rgb(100%, 51.396179%, 51.396179%)" offset="0.675781"/><stop stop-opacity="1" stop-color="rgb(100%, 51.982117%, 51.982117%)" offset="0.679688"/><stop stop-opacity="1" stop-color="rgb(100%, 52.568054%, 52.568054%)" offset="0.683594"/><stop stop-opacity="1" stop-color="rgb(100%, 53.153992%, 53.153992%)" offset="0.6875"/><stop stop-opacity="1" stop-color="rgb(100%, 53.738403%, 53.738403%)" offset="0.691406"/><stop stop-opacity="1" stop-color="rgb(100%, 54.324341%, 54.324341%)" offset="0.695313"/><stop stop-opacity="1" stop-color="rgb(100%, 54.910278%, 54.910278%)" offset="0.699219"/><stop stop-opacity="1" stop-color="rgb(100%, 55.496216%, 55.496216%)" offset="0.703125"/><stop stop-opacity="1" stop-color="rgb(100%, 56.080627%, 56.080627%)" offset="0.707031"/><stop stop-opacity="1" stop-color="rgb(100%, 56.666565%, 56.666565%)" offset="0.710938"/><stop stop-opacity="1" stop-color="rgb(100%, 57.252502%, 57.252502%)" offset="0.714844"/><stop stop-opacity="1" stop-color="rgb(100%, 57.83844%, 57.83844%)" offset="0.71875"/><stop stop-opacity="1" stop-color="rgb(100%, 58.422852%, 58.422852%)" offset="0.722656"/><stop stop-opacity="1" stop-color="rgb(100%, 59.008789%, 59.008789%)" offset="0.726563"/><stop stop-opacity="1" stop-color="rgb(100%, 59.594727%, 59.594727%)" offset="0.730469"/><stop stop-opacity="1" stop-color="rgb(100%, 60.180664%, 60.180664%)" offset="0.734375"/><stop stop-opacity="1" stop-color="rgb(100%, 60.765076%, 60.765076%)" offset="0.738281"/><stop stop-opacity="1" stop-color="rgb(100%, 61.351013%, 61.351013%)" offset="0.742188"/><stop stop-opacity="1" stop-color="rgb(100%, 61.936951%, 61.936951%)" offset="0.746094"/><stop stop-opacity="1" stop-color="rgb(100%, 62.522888%, 62.522888%)" offset="0.75"/><stop stop-opacity="1" stop-color="rgb(100%, 63.1073%, 63.1073%)" offset="0.753906"/><stop stop-opacity="1" stop-color="rgb(100%, 63.693237%, 63.693237%)" offset="0.757812"/><stop stop-opacity="1" stop-color="rgb(100%, 64.279175%, 64.279175%)" offset="0.761719"/><stop stop-opacity="1" stop-color="rgb(100%, 64.865112%, 64.865112%)" offset="0.765625"/><stop stop-opacity="1" stop-color="rgb(100%, 65.449524%, 65.449524%)" offset="0.769531"/><stop stop-opacity="1" stop-color="rgb(100%, 66.035461%, 66.035461%)" offset="0.773437"/><stop stop-opacity="1" stop-color="rgb(100%, 66.621399%, 66.621399%)" offset="0.777344"/><stop stop-opacity="1" stop-color="rgb(100%, 67.207336%, 67.207336%)" offset="0.78125"/><stop stop-opacity="1" stop-color="rgb(100%, 67.791748%, 67.791748%)" offset="0.785156"/><stop stop-opacity="1" stop-color="rgb(100%, 68.377686%, 68.377686%)" offset="0.789062"/><stop stop-opacity="1" stop-color="rgb(100%, 68.963623%, 68.963623%)" offset="0.792969"/><stop stop-opacity="1" stop-color="rgb(100%, 69.549561%, 69.549561%)" offset="0.796875"/><stop stop-opacity="1" stop-color="rgb(100%, 70.133972%, 70.133972%)" offset="0.800781"/><stop stop-opacity="1" stop-color="rgb(100%, 70.71991%, 70.71991%)" offset="0.804687"/><stop stop-opacity="1" stop-color="rgb(100%, 71.305847%, 71.305847%)" offset="0.808594"/><stop stop-opacity="1" stop-color="rgb(100%, 71.891785%, 71.891785%)" offset="0.8125"/><stop stop-opacity="1" stop-color="rgb(100%, 72.476196%, 72.476196%)" offset="0.816406"/><stop stop-opacity="1" stop-color="rgb(100%, 73.062134%, 73.062134%)" offset="0.820312"/><stop stop-opacity="1" stop-color="rgb(100%, 73.648071%, 73.648071%)" offset="0.824219"/><stop stop-opacity="1" stop-color="rgb(100%, 74.234009%, 74.234009%)" offset="0.828125"/><stop stop-opacity="1" stop-color="rgb(100%, 74.81842%, 74.81842%)" offset="0.832031"/><stop stop-opacity="1" stop-color="rgb(100%, 75.404358%, 75.404358%)" offset="0.835937"/><stop stop-opacity="1" stop-color="rgb(100%, 75.990295%, 75.990295%)" offset="0.839844"/><stop stop-opacity="1" stop-color="rgb(100%, 76.576233%, 76.576233%)" offset="0.84375"/><stop stop-opacity="1" stop-color="rgb(100%, 77.16217%, 77.16217%)" offset="0.847656"/><stop stop-opacity="1" stop-color="rgb(100%, 77.748108%, 77.748108%)" offset="0.851562"/><stop stop-opacity="1" stop-color="rgb(100%, 78.33252%, 78.33252%)" offset="0.855469"/><stop stop-opacity="1" stop-color="rgb(100%, 78.918457%, 78.918457%)" offset="0.859375"/><stop stop-opacity="1" stop-color="rgb(100%, 79.504395%, 79.504395%)" offset="0.863281"/><stop stop-opacity="1" stop-color="rgb(100%, 80.090332%, 80.090332%)" offset="0.867188"/><stop stop-opacity="1" stop-color="rgb(100%, 80.674744%, 80.674744%)" offset="0.871094"/><stop stop-opacity="1" stop-color="rgb(100%, 81.260681%, 81.260681%)" offset="0.875"/><stop stop-opacity="1" stop-color="rgb(100%, 81.846619%, 81.846619%)" offset="0.878906"/><stop stop-opacity="1" stop-color="rgb(100%, 82.432556%, 82.432556%)" offset="0.882812"/><stop stop-opacity="1" stop-color="rgb(100%, 83.016968%, 83.016968%)" offset="0.886719"/><stop stop-opacity="1" stop-color="rgb(100%, 83.602905%, 83.602905%)" offset="0.890625"/><stop stop-opacity="1" stop-color="rgb(100%, 84.188843%, 84.188843%)" offset="0.894531"/><stop stop-opacity="1" stop-color="rgb(100%, 84.77478%, 84.77478%)" offset="0.898438"/><stop stop-opacity="1" stop-color="rgb(100%, 85.359192%, 85.359192%)" offset="0.902344"/><stop stop-opacity="1" stop-color="rgb(100%, 85.945129%, 85.945129%)" offset="0.90625"/><stop stop-opacity="1" stop-color="rgb(100%, 86.531067%, 86.531067%)" offset="0.910156"/><stop stop-opacity="1" stop-color="rgb(100%, 87.117004%, 87.117004%)" offset="0.914063"/><stop stop-opacity="1" stop-color="rgb(100%, 87.701416%, 87.701416%)" offset="0.917969"/><stop stop-opacity="1" stop-color="rgb(100%, 88.287354%, 88.287354%)" offset="0.921875"/><stop stop-opacity="1" stop-color="rgb(100%, 88.873291%, 88.873291%)" offset="0.925781"/><stop stop-opacity="1" stop-color="rgb(100%, 89.459229%, 89.459229%)" offset="0.929688"/><stop stop-opacity="1" stop-color="rgb(100%, 90.04364%, 90.04364%)" offset="0.933594"/><stop stop-opacity="1" stop-color="rgb(100%, 90.629578%, 90.629578%)" offset="0.9375"/><stop stop-opacity="1" stop-color="rgb(100%, 91.215515%, 91.215515%)" offset="0.941406"/><stop stop-opacity="1" stop-color="rgb(100%, 91.801453%, 91.801453%)" offset="0.945313"/><stop stop-opacity="1" stop-color="rgb(100%, 92.385864%, 92.385864%)" offset="0.949219"/><stop stop-opacity="1" stop-color="rgb(100%, 92.971802%, 92.971802%)" offset="0.953125"/><stop stop-opacity="1" stop-color="rgb(100%, 93.557739%, 93.557739%)" offset="0.957031"/><stop stop-opacity="1" stop-color="rgb(100%, 94.143677%, 94.143677%)" offset="0.960938"/><stop stop-opacity="1" stop-color="rgb(100%, 94.728088%, 94.728088%)" offset="0.964844"/><stop stop-opacity="1" stop-color="rgb(100%, 95.314026%, 95.314026%)" offset="0.96875"/><stop stop-opacity="1" stop-color="rgb(100%, 95.899963%, 95.899963%)" offset="0.972656"/><stop stop-opacity="1" stop-color="rgb(100%, 96.485901%, 96.485901%)" offset="0.976563"/><stop stop-opacity="1" stop-color="rgb(100%, 97.070312%, 97.070312%)" offset="0.980469"/><stop stop-opacity="1" stop-color="rgb(100%, 97.65625%, 97.65625%)" offset="0.984375"/><stop stop-opacity="1" stop-color="rgb(100%, 98.242188%, 98.242188%)" offset="0.988281"/><stop stop-opacity="1" stop-color="rgb(100%, 98.828125%, 98.828125%)" offset="0.992188"/><stop stop-opacity="1" stop-color="rgb(100%, 99.414062%, 99.414062%)" offset="0.996094"/><stop stop-opacity="1" stop-color="rgb(100%, 100%, 100%)" offset="1"/></linearGradient></defs><g clip-path="url(#c76cd03221)"><g clip-path="url(#b879be879d)"><path fill="url(#0553863991)" d="M 22.5 19.714844 L 22.5 206.335938 L 209.121094 206.335938 L 209.121094 19.714844 Z M 22.5 19.714844 " fill-rule="nonzero"/></g></g><g fill="#ffffff" fill-opacity="1"><g transform="translate(242.996259, 153.293399)"><g><path d="M 41.0625 1.078125 C 34.144531 1.078125 28.046875 -0.359375 22.765625 -3.234375 C 17.492188 -6.117188 13.363281 -10.445312 10.375 -16.21875 C 7.394531 -21.988281 5.90625 -29.109375 5.90625 -37.578125 C 5.90625 -46.035156 7.394531 -53.148438 10.375 -58.921875 C 13.363281 -64.703125 17.492188 -69.03125 22.765625 -71.90625 C 28.046875 -74.78125 34.144531 -76.21875 41.0625 -76.21875 C 48.289062 -76.21875 54.429688 -74.804688 59.484375 -71.984375 C 64.546875 -69.160156 68.15625 -64.851562 70.3125 -59.0625 L 59.46875 -52.421875 L 58.1875 -52.484375 C 56.570312 -56.390625 54.382812 -59.1875 51.625 -60.875 C 48.875 -62.570312 45.351562 -63.421875 41.0625 -63.421875 C 34.832031 -63.421875 29.96875 -61.359375 26.46875 -57.234375 C 22.976562 -53.109375 21.234375 -46.554688 21.234375 -37.578125 C 21.234375 -28.628906 22.976562 -22.085938 26.46875 -17.953125 C 29.96875 -13.828125 34.832031 -11.765625 41.0625 -11.765625 C 50.832031 -11.765625 56.8125 -16.515625 59 -26.015625 L 60.296875 -26.015625 L 71.234375 -20.296875 C 69.179688 -13.171875 65.671875 -7.828125 60.703125 -4.265625 C 55.734375 -0.703125 49.1875 1.078125 41.0625 1.078125 Z M 41.0625 1.078125 "/></g></g></g><g fill="#ffffff" fill-opacity="1"><g transform="translate(316.695345, 153.293399)"><g><path d="M 40.96875 1.078125 C 34.082031 1.078125 28.007812 -0.320312 22.75 -3.125 C 17.488281 -5.9375 13.363281 -10.226562 10.375 -16 C 7.394531 -21.78125 5.90625 -28.972656 5.90625 -37.578125 C 5.90625 -46.171875 7.394531 -53.351562 10.375 -59.125 C 13.363281 -64.90625 17.488281 -69.195312 22.75 -72 C 28.007812 -74.8125 34.082031 -76.21875 40.96875 -76.21875 C 47.851562 -76.21875 53.914062 -74.820312 59.15625 -72.03125 C 64.40625 -69.238281 68.507812 -64.945312 71.46875 -59.15625 C 74.4375 -53.363281 75.921875 -46.171875 75.921875 -37.578125 C 75.921875 -28.972656 74.4375 -21.773438 71.46875 -15.984375 C 68.507812 -10.191406 64.40625 -5.898438 59.15625 -3.109375 C 53.914062 -0.316406 47.851562 1.078125 40.96875 1.078125 Z M 40.96875 -11.828125 C 47.34375 -11.828125 52.207031 -13.875 55.5625 -17.96875 C 58.914062 -22.0625 60.59375 -28.597656 60.59375 -37.578125 C 60.59375 -46.554688 58.914062 -53.097656 55.5625 -57.203125 C 52.207031 -61.316406 47.34375 -63.375 40.96875 -63.375 C 34.5625 -63.375 29.671875 -61.316406 26.296875 -57.203125 C 22.921875 -53.097656 21.234375 -46.554688 21.234375 -37.578125 C 21.234375 -28.597656 22.921875 -22.0625 26.296875 -17.96875 C 29.671875 -13.875 34.5625 -11.828125 40.96875 -11.828125 Z M 40.96875 -11.828125 "/></g></g></g><g fill="#ffffff" fill-opacity="1"><g transform="translate(398.566086, 153.293399)"><g><path d="M 9.765625 0 L 9.765625 -75.140625 L 39.9375 -75.140625 C 47.71875 -75.140625 53.585938 -73.347656 57.546875 -69.765625 C 61.503906 -66.191406 63.484375 -61.253906 63.484375 -54.953125 C 63.484375 -50.390625 62.328125 -46.648438 60.015625 -43.734375 C 57.703125 -40.828125 54.25 -38.601562 49.65625 -37.0625 L 49.65625 -35.984375 C 52.019531 -34.953125 53.925781 -33.425781 55.375 -31.40625 C 56.832031 -29.382812 58.210938 -26.382812 59.515625 -22.40625 L 67.03125 0 L 51.765625 0 L 44.40625 -22.46875 C 43.65625 -24.726562 42.804688 -26.484375 41.859375 -27.734375 C 40.921875 -28.984375 39.722656 -29.890625 38.265625 -30.453125 C 36.804688 -31.015625 34.914062 -31.296875 32.59375 -31.296875 L 24.625 -31.296875 L 24.625 0 Z M 38.140625 -43.078125 C 45.335938 -43.078125 48.9375 -46.429688 48.9375 -53.140625 C 48.9375 -59.960938 45.335938 -63.375 38.140625 -63.375 L 24.625 -63.375 L 24.625 -43.078125 Z M 38.140625 -43.078125 "/></g></g></g><g fill="#ffffff" fill-opacity="1"><g transform="translate(468.821769, 153.293399)"><g><path d="M 9.765625 0 L 9.765625 -75.140625 L 39.9375 -75.140625 C 47.71875 -75.140625 53.585938 -73.347656 57.546875 -69.765625 C 61.503906 -66.191406 63.484375 -61.253906 63.484375 -54.953125 C 63.484375 -50.390625 62.328125 -46.648438 60.015625 -43.734375 C 57.703125 -40.828125 54.25 -38.601562 49.65625 -37.0625 L 49.65625 -35.984375 C 52.019531 -34.953125 53.925781 -33.425781 55.375 -31.40625 C 56.832031 -29.382812 58.210938 -26.382812 59.515625 -22.40625 L 67.03125 0 L 51.765625 0 L 44.40625 -22.46875 C 43.65625 -24.726562 42.804688 -26.484375 41.859375 -27.734375 C 40.921875 -28.984375 39.722656 -29.890625 38.265625 -30.453125 C 36.804688 -31.015625 34.914062 -31.296875 32.59375 -31.296875 L 24.625 -31.296875 L 24.625 0 Z M 38.140625 -43.078125 C 45.335938 -43.078125 48.9375 -46.429688 48.9375 -53.140625 C 48.9375 -59.960938 45.335938 -63.375 38.140625 -63.375 L 24.625 -63.375 L 24.625 -43.078125 Z M 38.140625 -43.078125 "/></g></g></g><g fill="#ffffff" fill-opacity="1"><g transform="translate(539.077452, 153.293399)"><g><path d="M 39.828125 1.078125 C 29.484375 1.078125 21.804688 -1.378906 16.796875 -6.296875 C 11.796875 -11.210938 9.296875 -18.503906 9.296875 -28.171875 L 9.296875 -75.140625 L 23.84375 -75.140625 L 23.84375 -28.265625 C 23.84375 -22.785156 25.160156 -18.675781 27.796875 -15.9375 C 30.441406 -13.195312 34.453125 -11.828125 39.828125 -11.828125 C 50.484375 -11.828125 55.8125 -17.304688 55.8125 -28.265625 L 55.8125 -75.140625 L 70.359375 -75.140625 L 70.359375 -28.171875 C 70.359375 -18.503906 67.859375 -11.210938 62.859375 -6.296875 C 57.859375 -1.378906 50.179688 1.078125 39.828125 1.078125 Z M 39.828125 1.078125 "/></g></g></g><g fill="#ffffff" fill-opacity="1"><g transform="translate(618.738248, 153.293399)"><g><path d="M 23.390625 0 L 9.765625 0 L 9.765625 -75.140625 L 29.1875 -75.140625 L 48.21875 -19.890625 L 49.296875 -19.890625 L 68.203125 -75.140625 L 87.171875 -75.140625 L 87.171875 0 L 73.09375 0 L 73.09375 -49.65625 L 71.8125 -49.859375 L 54.4375 0 L 42.046875 0 L 24.671875 -49.859375 L 23.390625 -49.65625 Z M 23.390625 0 "/></g></g></g></svg>